<?xml version="1.0" encoding="UTF-8" standalone="no"?>
<!-- Created with Inkscape (http://www.inkscape.org/) -->

<svg
   width="32mm"
   height="32mm"
   viewBox="0 0 32 32"
   version="1.1"
   id="svg5"
   xml:space="preserve"
   inkscape:version="1.2.2 (732a01da63, 2022-12-09, custom)"
   sodipodi:docname="logo.svg"
   xmlns:inkscape="http://www.inkscape.org/namespaces/inkscape"
   xmlns:sodipodi="http://sodipodi.sourceforge.net/DTD/sodipodi-0.dtd"
   xmlns="http://www.w3.org/2000/svg"
   xmlns:svg="http://www.w3.org/2000/svg"><sodipodi:namedview
     id="namedview7"
     pagecolor="#ffffff"
     bordercolor="#666666"
     borderopacity="1.0"
     inkscape:showpageshadow="2"
     inkscape:pageopacity="0.0"
     inkscape:pagecheckerboard="0"
     inkscape:deskcolor="#d1d1d1"
     inkscape:document-units="mm"
     showgrid="false"
     inkscape:zoom="3.0289001"
     inkscape:cx="89.141269"
     inkscape:cy="56.621214"
     inkscape:window-width="1868"
     inkscape:window-height="1016"
     inkscape:window-x="52"
     inkscape:window-y="27"
     inkscape:window-maximized="1"
     inkscape:current-layer="layer1" /><defs
     id="defs2" /><g
     inkscape:label="Layer 1"
     inkscape:groupmode="layer"
     id="layer1"><rect
       style="fill:#000000;stroke-width:0.141586"
       id="rect165"
       width="10"
       height="10"
       x="0"
       y="0"
       rx="0"
       ry="0" /><text
       xml:space="preserve"
       style="font-size:9.87778px;line-height:1.25;font-family:sans-serif;letter-spacing:0px;fill:#d40000;stroke-width:0.264583"
       x="1.1294343"
       y="8.6004705"
       id="text855"><tspan
         sodipodi:role="line"
         id="tspan853"
         style="font-weight:bold;font-size:9.87778px;fill:#d40000;stroke-width:0.264583"
         x="1.1294343"
         y="8.6004705">B</tspan></text><rect
       style="fill:#000000;stroke-width:0.141586"
       id="rect165-3"
       width="10"
       height="10"
       x="11"
       y="0"
       rx="0"
       ry="0" /><text
       xml:space="preserve"
       style="font-size:9.87778px;line-height:1.25;font-family:sans-serif;letter-spacing:0px;fill:#d40000;stroke-width:0.264583"
       x="12.423646"
       y="8.6004705"
       id="text855-6"><tspan
         sodipodi:role="line"
         id="tspan853-1"
         style="font-weight:bold;font-size:9.87778px;fill:#d40000;stroke-width:0.264583"
         x="12.423646"
         y="8.6004705">Y</tspan></text><rect
       style="fill:#000000;stroke-width:0.141586"
       id="rect165-3-6"
       width="10"
       height="10"
       x="22"
       y="-2.2118911e-08"
       rx="0"
       ry="0" /><text
       xml:space="preserve"
       style="font-size:9.87778px;line-height:1.25;font-family:sans-serif;letter-spacing:0px;fill:#d40000;stroke-width:0.264583"
       x="23.633451"
       y="8.6004696"
       id="text855-6-8"><tspan
         sodipodi:role="line"
         id="tspan853-1-7"
         style="font-weight:bold;font-size:9.87778px;fill:#d40000;stroke-width:0.264583"
         x="23.633451"
         y="8.6004696">T</tspan></text><rect
       style="fill:#000000;stroke-width:0.141586"
       id="rect165-5"
       width="10"
       height="10"
       x="0"
       y="11"
       rx="0"
       ry="0" /><text
       xml:space="preserve"
       style="font-size:9.87778px;line-height:1.25;font-family:sans-serif;letter-spacing:0px;fill:#d40000;stroke-width:0.264583"
       x="1.5345777"
       y="19.60047"
       id="text855-6-8-9"><tspan
         sodipodi:role="line"
         id="tspan853-1-7-2"
         style="font-weight:bold;font-size:9.87778px;fill:#d40000;stroke-width:0.264583"
         x="1.5345777"
         y="19.60047">E</tspan></text><rect
       style="fill:#d40000;stroke-width:0.141586"
       id="rect165-3-3"
       width="10"
       height="10"
       x="11"
       y="11"
       rx="0"
       ry="0" /><text
       xml:space="preserve"
       style="font-size:9.87778px;line-height:1.25;font-family:sans-serif;letter-spacing:0px;fill:#aa0000;stroke-width:0.264583"
       x="12.44535"
       y="19.595648"
       id="text855-3"><tspan
         sodipodi:role="line"
         id="tspan853-7"
         style="font-weight:bold;font-size:9.87778px;fill:#ffffff;stroke-width:0.264583"
         x="12.44535"
         y="19.595648">C</tspan></text><rect
       style="fill:#d40000;stroke-width:0.141586"
       id="rect165-3-6-5"
       width="10"
       height="10"
       x="22"
       y="11"
       rx="0"
       ry="0" /><text
       xml:space="preserve"
       style="font-size:9.87778px;line-height:1.25;font-family:sans-serif;letter-spacing:0px;fill:#aa0000;stroke-width:0.264583"
       x="23.177666"
       y="19.60047"
       id="text855-3-5"><tspan
         sodipodi:role="line"
         id="tspan853-7-9"
         style="font-weight:bold;font-size:9.87778px;fill:#ffffff;stroke-width:0.264583"
         x="23.177666"
         y="19.60047">A</tspan></text><rect
       style="fill:#d40000;stroke-width:0.141586"
       id="rect165-5-2"
       width="10"
       height="10"
       x="0"
       y="22"
       rx="0"
       ry="0" /><text
       xml:space="preserve"
       style="font-size:9.87778px;line-height:1.25;font-family:sans-serif;letter-spacing:0px;fill:#aa0000;stroke-width:0.264583"
       x="0.087637261"
       y="30.600471"
       id="text855-3-2"><tspan
         sodipodi:role="line"
         id="tspan853-7-2"
         style="font-weight:bold;font-size:9.87778px;fill:#ffffff;stroke-width:0.264583"
         x="0.087637261"
         y="30.600471">M</tspan></text><rect
       style="fill:#d40000;stroke-width:0.141586"
       id="rect165-3-6-5-1"
       width="10"
       height="10"
       x="22"
       y="22"
       rx="0"
       ry="0" /><text
       xml:space="preserve"
       style="font-size:9.87778px;line-height:1.25;font-family:sans-serif;letter-spacing:0px;fill:#aa0000;stroke-width:0.264583"
       x="23.129435"
       y="30.600471"
       id="text855-3-8"><tspan
         sodipodi:role="line"
         id="tspan853-7-97"
         style="font-weight:bold;font-size:9.87778px;fill:#ffffff;stroke-width:0.264583"
         x="23.129435"
         y="30.600471">P</tspan></text><rect
       style="fill:#000000;stroke-width:0.141586"
       id="rect165-3-3-9"
       width="10"
       height="10"
       x="11"
       y="22"
       rx="0"
       ry="0" /><path
       d="m 16.73027,24.460104 c -0.307082,0.02036 -0.572905,0.09087 -0.891999,0.23501 -0.157717,0.07155 -0.263212,0.129518 -0.369229,0.204201 -0.05431,0.03812 -0.08774,0.06476 -0.253812,0.198976 -0.191141,0.154583 -0.291415,0.18383 -0.532171,0.153017 -0.168163,-0.0209 -0.228744,-0.0256 -0.360349,-0.0256 -0.174953,0 -0.276793,0.01356 -0.397431,0.05379 -0.110196,0.03656 -0.18801,0.08408 -0.265823,0.161897 -0.147275,0.146751 -0.2277,0.356694 -0.277838,0.723312 -0.0115,0.08408 -0.01201,0.101316 -0.01045,0.337371 l 0.0015,0.249112 -0.04648,0.06163 c -0.125339,0.167118 -0.229789,0.339461 -0.33006,0.542616 -0.167118,0.340506 -0.271048,0.682578 -0.313348,1.028829 -0.0057,0.04857 -0.01359,0.108627 -0.01671,0.13317 -0.01045,0.07259 -0.0089,0.22979 0.0031,0.279404 0.01096,0.04648 0.02871,0.08931 0.03447,0.08251 0.0027,-0.0021 0.02455,-0.07938 0.04961,-0.171297 0.07625,-0.280967 0.115938,-0.416751 0.166598,-0.569247 0.170253,-0.509714 0.378106,-0.885733 0.657509,-1.18707 l 0.04178,-0.04544 0.141529,-5.99e-4 c 0.07938,0 0.159808,-0.0031 0.18331,-0.0068 0.166597,-0.02455 0.240231,-0.04126 0.359828,-0.08095 0.163463,-0.05483 0.307603,-0.130039 0.440256,-0.228744 0.02611,-0.01931 0.04857,-0.03551 0.05014,-0.03551 0.0015,0 0.01566,0.02401 0.03081,0.05327 0.04178,0.0799 0.08826,0.151454 0.158765,0.24598 0.390118,0.521725 0.988615,0.888864 1.711406,1.051285 0.04282,0.0094 0.07938,0.0188 0.08095,0.01985 0.0015,0.0015 0,0.0188 -0.0031,0.03812 -0.0031,0.01985 -0.03081,0.194276 -0.06163,0.38803 -0.03081,0.193755 -0.0564,0.353038 -0.05692,0.354083 -0.0012,8.98e-4 -0.03395,0.0063 -0.07364,0.01201 -0.310738,0.04491 -0.502927,0.158241 -0.556194,0.329018 -0.01254,0.04073 -0.02245,0.119073 -0.01829,0.143095 l 0.0037,0.0188 0.0162,-0.02245 c 0.0658,-0.09296 0.159807,-0.14623 0.329539,-0.186444 l 0.0611,-0.01461 -0.0031,0.09714 c -0.0042,0.110196 5.98e-4,0.186965 0.01045,0.171298 0.07155,-0.116983 0.147275,-0.193231 0.23658,-0.238145 0.05797,-0.02925 0.0987,-0.03708 0.205242,-0.04178 0.115938,-0.0047 0.135784,-0.0115 0.135784,-0.047 0,-0.0047 -0.01461,-0.0235 -0.03186,-0.04126 l -0.03238,-0.03238 0.0037,-0.06163 c 0.01096,-0.183309 0.05327,-0.384896 0.110717,-0.524857 0.03029,-0.07416 0.05797,-0.124296 0.09766,-0.177567 l 0.03186,-0.04178 0.06789,0.0031 c 0.2371,0.0099 0.405263,0.142051 0.449654,0.353039 0.01985,0.09609 0.03029,0.244935 0.02299,0.333718 -0.0084,0.102882 -0.0282,0.163463 -0.06894,0.208377 -0.047,0.05118 -0.08826,0.06685 -0.41362,0.155628 -0.227702,0.06267 -0.337895,0.127428 -0.404221,0.237624 -0.0057,0.0099 -0.01096,0.01985 -0.01096,0.02141 0,0.0015 0.02401,-0.0027 0.05379,-0.0094 0.07625,-0.0167 0.174954,-0.03134 0.277835,-0.04021 0.119073,-0.01045 0.211512,-0.01515 0.211512,-0.01096 0,0.0015 -0.0094,0.03917 -0.02036,0.08251 -0.0188,0.07312 -0.03499,0.158763 -0.03081,0.162942 8.99e-4,8.98e-4 0.03238,-0.0162 0.06946,-0.0376 0.15302,-0.08878 0.267914,-0.141006 0.368187,-0.167118 0.04335,-0.0115 0.06528,-0.01356 0.169729,-0.01671 0.09766,-0.0027 0.123252,-0.0052 0.136306,-0.01201 0.0141,-0.0078 0.02299,-0.0188 0.02299,-0.02871 0,-8.98e-4 -0.01931,-0.02299 -0.04335,-0.04753 -0.07886,-0.08199 -0.0893,-0.112282 -0.08983,-0.251722 0,-0.07938 0.0021,-0.107061 0.012,-0.154065 0.04126,-0.204721 0.150407,-0.389072 0.349907,-0.591183 0.0799,-0.08043 0.127949,-0.120638 0.297157,-0.248067 0.07677,-0.05797 0.161376,-0.122728 0.186965,-0.144664 0.304471,-0.256423 0.441301,-0.524336 0.506582,-0.991749 0.07311,-0.525381 0.04283,-0.905576 -0.09766,-1.233547 -0.09348,-0.218822 -0.275748,-0.450701 -0.476814,-0.607374 -0.339461,-0.264257 -0.936389,-0.48099 -1.50146,-0.544706 -0.08513,-0.0094 -0.393255,-0.0141 -0.496137,-0.0068 z"
       id="path1173"
       style="fill:#d40000;stroke:none;stroke-width:0.000522249" /></g></svg>
